<svg xmlns="http://www.w3.org/2000/svg" viewBox="0 0 330 250" fill="none" stroke-linejoin="round" stroke-linecap="round"><rect x="86" y="98" width="168" height="50" rx="22" fill="#C7D4E4" stroke="#243244" stroke-width="4"/><circle cx="112" cy="142" r="8" fill="#AEBFD4" stroke="#243244" stroke-width="3"/><circle cx="228" cy="142" r="8" fill="#AEBFD4" stroke="#243244" stroke-width="3"/><path d="M126,142 L110,190 L124,226" stroke="#AEBFD4" stroke-width="7"/><line x1="117" y1="226" x2="132" y2="226" stroke="#AEBFD4" stroke-width="6"/><path d="M214,142 L198,190 L212,226" stroke="#AEBFD4" stroke-width="7"/><line x1="205" y1="226" x2="220" y2="226" stroke="#AEBFD4" stroke-width="6"/><path d="M112,142 L94,192 L110,230" stroke="#243244" stroke-width="8"/><line x1="101" y1="230" x2="120" y2="230" stroke="#243244" stroke-width="7"/><path d="M228,142 L210,192 L226,230" stroke="#243244" stroke-width="8"/><line x1="217" y1="230" x2="236" y2="230" stroke="#243244" stroke-width="7"/><line x1="150" y1="112" x2="150" y2="98" stroke="#243244" stroke-width="4"/><line x1="204" y1="112" x2="204" y2="98" stroke="#243244" stroke-width="4"/><rect x="140" y="54" width="74" height="58" rx="6" fill="#1E2733" stroke="#0B111A" stroke-width="2"/><circle cx="177.0" cy="83.0" r="5.4" fill="#F2C300"/><path d="M172.3,74.9 L165.6,63.3 A22.8,22.8 0 0 1 188.4,63.3 L181.7,74.9 A9.3,9.3 0 0 0 172.3,74.9 Z" fill="#F2C300"/><path d="M186.3,83.0 L199.8,83.0 A22.8,22.8 0 0 1 188.4,102.7 L181.7,91.1 A9.3,9.3 0 0 0 186.3,83.0 Z" fill="#F2C300"/><path d="M172.3,91.1 L165.6,102.7 A22.8,22.8 0 0 1 154.2,83.0 L167.7,83.0 A9.3,9.3 0 0 0 172.3,91.1 Z" fill="#F2C300"/></svg>