<svg xmlns="http://www.w3.org/2000/svg" viewBox="0 0 340 236" fill="none" stroke-linejoin="round" stroke-linecap="round"><path d="M20,230 Q170,150 320,230" stroke="#2B5FB3" stroke-width="6" opacity="0.35"/><rect x="26" y="84" width="80" height="52" rx="3" fill="#2B5FB3" opacity="0.22" stroke="#243244" stroke-width="3"/><line x1="46" y1="84" x2="46" y2="136" stroke="#243244" stroke-width="1.5" opacity="0.55"/><line x1="66" y1="84" x2="66" y2="136" stroke="#243244" stroke-width="1.5" opacity="0.55"/><line x1="86" y1="84" x2="86" y2="136" stroke="#243244" stroke-width="1.5" opacity="0.55"/><line x1="26" y1="110" x2="106" y2="110" stroke="#243244" stroke-width="1.5" opacity="0.55"/><rect x="214" y="84" width="80" height="52" rx="3" fill="#2B5FB3" opacity="0.22" stroke="#243244" stroke-width="3"/><line x1="234" y1="84" x2="234" y2="136" stroke="#243244" stroke-width="1.5" opacity="0.55"/><line x1="254" y1="84" x2="254" y2="136" stroke="#243244" stroke-width="1.5" opacity="0.55"/><line x1="274" y1="84" x2="274" y2="136" stroke="#243244" stroke-width="1.5" opacity="0.55"/><line x1="214" y1="110" x2="294" y2="110" stroke="#243244" stroke-width="1.5" opacity="0.55"/><line x1="106" y1="110" x2="128" y2="110" stroke="#243244" stroke-width="4"/><line x1="214" y1="110" x2="192" y2="110" stroke="#243244" stroke-width="4"/><rect x="128" y="78" width="64" height="64" rx="5" fill="#C7D4E4" stroke="#243244" stroke-width="4"/><rect x="136" y="86" width="48" height="48" rx="4" fill="#1E2733" stroke="#0B111A" stroke-width="2"/><circle cx="160.0" cy="110.0" r="4.0" fill="#F2C300"/><path d="M156.6,104.1 L151.6,95.5 A16.7,16.7 0 0 1 168.4,95.5 L163.4,104.1 A6.8,6.8 0 0 0 156.6,104.1 Z" fill="#F2C300"/><path d="M166.8,110.0 L176.7,110.0 A16.7,16.7 0 0 1 168.4,124.5 L163.4,115.9 A6.8,6.8 0 0 0 166.8,110.0 Z" fill="#F2C300"/><path d="M156.6,115.9 L151.6,124.5 A16.7,16.7 0 0 1 143.3,110.0 L153.2,110.0 A6.8,6.8 0 0 0 156.6,115.9 Z" fill="#F2C300"/></svg>