<svg xmlns="http://www.w3.org/2000/svg" viewBox="0 0 320 224" fill="none" stroke-linejoin="round" stroke-linecap="round"><line x1="160" y1="110" x2="58" y2="64" stroke="#243244" stroke-width="7"/><ellipse cx="58" cy="64" rx="40" ry="11" fill="#2B5FB3" opacity="0.18"/><circle cx="58" cy="64" r="9" fill="#AEBFD4" stroke="#243244" stroke-width="3"/><line x1="160" y1="110" x2="262" y2="64" stroke="#243244" stroke-width="7"/><ellipse cx="262" cy="64" rx="40" ry="11" fill="#2B5FB3" opacity="0.18"/><circle cx="262" cy="64" r="9" fill="#AEBFD4" stroke="#243244" stroke-width="3"/><line x1="160" y1="110" x2="58" y2="158" stroke="#243244" stroke-width="7"/><ellipse cx="58" cy="158" rx="40" ry="11" fill="#2B5FB3" opacity="0.18"/><circle cx="58" cy="158" r="9" fill="#AEBFD4" stroke="#243244" stroke-width="3"/><line x1="160" y1="110" x2="262" y2="158" stroke="#243244" stroke-width="7"/><ellipse cx="262" cy="158" rx="40" ry="11" fill="#2B5FB3" opacity="0.18"/><circle cx="262" cy="158" r="9" fill="#AEBFD4" stroke="#243244" stroke-width="3"/><rect x="126" y="88" width="68" height="44" rx="12" fill="#C7D4E4" stroke="#243244" stroke-width="4"/><line x1="140" y1="128" x2="136" y2="156" stroke="#243244" stroke-width="4"/><line x1="180" y1="128" x2="184" y2="156" stroke="#243244" stroke-width="4"/><rect x="120" y="156" width="80" height="62" rx="6" fill="#1E2733" stroke="#0B111A" stroke-width="2"/><circle cx="160.0" cy="187.0" r="5.6" fill="#F2C300"/><path d="M155.2,178.7 L148.2,166.6 A23.6,23.6 0 0 1 171.8,166.6 L164.8,178.7 A9.6,9.6 0 0 0 155.2,178.7 Z" fill="#F2C300"/><path d="M169.6,187.0 L183.6,187.0 A23.6,23.6 0 0 1 171.8,207.4 L164.8,195.3 A9.6,9.6 0 0 0 169.6,187.0 Z" fill="#F2C300"/><path d="M155.2,195.3 L148.2,207.4 A23.6,23.6 0 0 1 136.4,187.0 L150.4,187.0 A9.6,9.6 0 0 0 155.2,195.3 Z" fill="#F2C300"/></svg>